<svg xmlns="http://www.w3.org/2000/svg" width="1600" height="900" viewBox="0 0 1600 900">
  <defs>
    <linearGradient id="bg" x1="0" y1="0" x2="1600" y2="900" gradientUnits="userSpaceOnUse">
      <stop offset="0" stop-color="#0a0f1c"/><stop offset="0.55" stop-color="#0a0d16"/><stop offset="1" stop-color="#06080e"/>
    </linearGradient>
    <radialGradient id="halo" cx="1180" cy="240" r="620" gradientUnits="userSpaceOnUse">
      <stop offset="0" stop-color="#17396b" stop-opacity="0.5"/><stop offset="1" stop-color="#17396b" stop-opacity="0"/>
    </radialGradient>
  </defs>
  <rect width="1600" height="900" fill="url(#bg)"/>
  <rect width="1600" height="900" fill="url(#halo)"/>
  <g stroke="#1E1E26" stroke-width="1" opacity="0.35">
    <line x1="0" y1="225" x2="1600" y2="225"/><line x1="0" y1="450" x2="1600" y2="450"/><line x1="0" y1="675" x2="1600" y2="675"/>
  </g>

  <g transform="translate(96 80) scale(2.4)">
    <circle cx="16" cy="15" r="15" fill="#48D8FF" opacity="0.16"/>
    <path d="M16 2 L28 6 V15 C28 23 22.5 27.5 16 30 C9.5 27.5 4 23 4 15 V6 Z" fill="#0E0E14" stroke="#48D8FF" stroke-width="2" stroke-linejoin="round"/>
    <circle cx="16" cy="14.5" r="5" fill="none" stroke="#3B82F6" stroke-width="1.8"/>
    <circle cx="16" cy="14.5" r="1.6" fill="#48D8FF"/>
    <line x1="16" y1="7" x2="16" y2="9.5" stroke="#48D8FF" stroke-width="1.4" stroke-linecap="round"/>
    <line x1="16" y1="19.5" x2="16" y2="22" stroke="#48D8FF" stroke-width="1.4" stroke-linecap="round"/>
    <line x1="8.5" y1="14.5" x2="11" y2="14.5" stroke="#48D8FF" stroke-width="1.4" stroke-linecap="round"/>
    <line x1="21" y1="14.5" x2="23.5" y2="14.5" stroke="#48D8FF" stroke-width="1.4" stroke-linecap="round"/>
  </g>
  <text x="180" y="118" font-family="DejaVu Sans Mono, monospace" font-size="40" font-weight="bold" fill="#E8E8EC">phylax</text>
  <text x="182" y="150" font-family="DejaVu Sans, sans-serif" font-size="20" fill="#8888A0">Pre-install risk verdicts for agent skills · Base</text>

  <text x="96" y="270" font-family="DejaVu Sans, sans-serif" font-size="58" font-weight="bold" fill="#E8E8EC">Audit a skill before</text>
  <text x="96" y="338" font-family="DejaVu Sans, sans-serif" font-size="58" font-weight="bold" fill="#E8E8EC">it drains your wallet.</text>

  <text x="96" y="402" font-family="DejaVu Sans Mono, monospace" font-size="20" fill="#48D8FF">static + onchain + x402  →  one deterministic verdict</text>

  <!-- live verdict cards -->
  <g transform="translate(96 470)">
    <rect width="380" height="118" rx="12" fill="#0E0E14" stroke="#1E1E26"/>
    <text x="22" y="38" font-family="DejaVu Sans Mono, monospace" font-size="17" fill="#8888A0">skills/article</text>
    <g transform="translate(22 58)">
      <rect x="0" y="0" width="119" height="40" rx="8" fill="#3ddc9722" stroke="#3ddc9766"/>
      <text x="16" y="27" font-family="DejaVu Sans Mono, monospace" font-size="20" font-weight="bold" fill="#3ddc97">ALLOW</text>
    </g>
    <text x="167" y="86" font-family="DejaVu Sans Mono, monospace" font-size="30" font-weight="bold" fill="#E8E8EC">97</text>
    <text x="340" y="38" font-family="DejaVu Sans Mono, monospace" font-size="13" fill="#4A4A5A">/api</text>
  </g>
  <g transform="translate(516 470)">
    <rect width="380" height="118" rx="12" fill="#0E0E14" stroke="#1E1E26"/>
    <text x="22" y="38" font-family="DejaVu Sans Mono, monospace" font-size="17" fill="#8888A0">skills/honeypot-check</text>
    <g transform="translate(22 58)">
      <rect x="0" y="0" width="104" height="40" rx="8" fill="#f5c45122" stroke="#f5c45166"/>
      <text x="16" y="27" font-family="DejaVu Sans Mono, monospace" font-size="20" font-weight="bold" fill="#f5c451">WARN</text>
    </g>
    <text x="152" y="86" font-family="DejaVu Sans Mono, monospace" font-size="30" font-weight="bold" fill="#E8E8EC">57</text>
    <text x="340" y="38" font-family="DejaVu Sans Mono, monospace" font-size="13" fill="#4A4A5A">/api</text>
  </g>
  <g transform="translate(936 470)">
    <rect width="380" height="118" rx="12" fill="#0E0E14" stroke="#1E1E26"/>
    <text x="22" y="38" font-family="DejaVu Sans Mono, monospace" font-size="17" fill="#8888A0">swap-helper (honeypot)</text>
    <g transform="translate(22 58)">
      <rect x="0" y="0" width="104" height="40" rx="8" fill="#ff6b6b22" stroke="#ff6b6b66"/>
      <text x="16" y="27" font-family="DejaVu Sans Mono, monospace" font-size="20" font-weight="bold" fill="#ff6b6b">DENY</text>
    </g>
    <text x="152" y="86" font-family="DejaVu Sans Mono, monospace" font-size="30" font-weight="bold" fill="#E8E8EC">27</text>
    <text x="340" y="38" font-family="DejaVu Sans Mono, monospace" font-size="13" fill="#4A4A5A">/api</text>
  </g>

  <!-- usage row -->
  <g transform="translate(96 650)">
    <text x="0" y="24" font-family="DejaVu Sans Mono, monospace" font-size="19" fill="#E8E8EC">$ npx phylax --skill ./SKILL.md</text>
    <text x="0" y="58" font-family="DejaVu Sans Mono, monospace" font-size="19" fill="#8888A0">$ curl -X POST usephylax.com/api/audit</text>
    <text x="0" y="92" font-family="DejaVu Sans Mono, monospace" font-size="19" fill="#3B82F6">$ ./add-skill aaronjmars/aeon phylax-audit</text>
  </g>

  <text x="96" y="828" font-family="DejaVu Sans Mono, monospace" font-size="18" fill="#4A4A5A">npm i phylax-skill-audit   ·   MIT   ·   merged into Aeon   ·   usephylax.com</text>
</svg>