<svg xmlns="http://www.w3.org/2000/svg" width="1600" height="900" viewBox="0 0 1600 900">
  <defs>
    <linearGradient id="bg" x1="0" y1="0" x2="1600" y2="900" gradientUnits="userSpaceOnUse">
      <stop offset="0" stop-color="#0a1322"/><stop offset="0.5" stop-color="#080c15"/><stop offset="1" stop-color="#05070d"/>
    </linearGradient>
    <radialGradient id="halo" cx="800" cy="300" r="640" gradientUnits="userSpaceOnUse">
      <stop offset="0" stop-color="#1c4488" stop-opacity="0.55"/><stop offset="1" stop-color="#1c4488" stop-opacity="0"/>
    </radialGradient>
  </defs>
  <rect width="1600" height="900" fill="url(#bg)"/>
  <rect width="1600" height="900" fill="url(#halo)"/>
  <g stroke="#222838" stroke-width="1" opacity="0.3">
    <line x1="0" y1="150" x2="1600" y2="150"/><line x1="0" y1="300" x2="1600" y2="300"/><line x1="0" y1="450" x2="1600" y2="450"/><line x1="0" y1="600" x2="1600" y2="600"/><line x1="0" y1="750" x2="1600" y2="750"/>
  </g>

  <g transform="translate(700 70) scale(6)">
    <circle cx="16" cy="15" r="15" fill="#48D8FF" opacity="0.18"/>
    <path d="M16 2 L28 6 V15 C28 23 22.5 27.5 16 30 C9.5 27.5 4 23 4 15 V6 Z" fill="#0E121B" stroke="#48D8FF" stroke-width="2" stroke-linejoin="round"/>
    <circle cx="16" cy="14.5" r="5" fill="none" stroke="#3B82F6" stroke-width="1.8"/>
    <circle cx="16" cy="14.5" r="1.6" fill="#48D8FF"/>
    <line x1="16" y1="7" x2="16" y2="9.5" stroke="#48D8FF" stroke-width="1.4" stroke-linecap="round"/>
    <line x1="16" y1="19.5" x2="16" y2="22" stroke="#48D8FF" stroke-width="1.4" stroke-linecap="round"/>
    <line x1="8.5" y1="14.5" x2="11" y2="14.5" stroke="#48D8FF" stroke-width="1.4" stroke-linecap="round"/>
    <line x1="21" y1="14.5" x2="23.5" y2="14.5" stroke="#48D8FF" stroke-width="1.4" stroke-linecap="round"/>
  </g>

  <text x="800" y="345" text-anchor="middle" font-family="DejaVu Sans Mono, monospace" font-size="76" font-weight="bold" fill="#EAF2FF">$PHYLAX</text>
  <text x="800" y="392" text-anchor="middle" font-family="DejaVu Sans, sans-serif" font-size="26" fill="#8e97ad">audit agent skills before they drain your wallet</text>

  <!-- verdict pills -->
  <g transform="translate(0 0)">
    <g transform="translate(520 440)">
    <rect x="0" y="0" width="105" height="46" rx="10" fill="#3ddc971f" stroke="#3ddc9766" stroke-width="1.5"/>
    <text x="52.5" y="30" text-anchor="middle" font-family="DejaVu Sans Mono, monospace" font-size="22" font-weight="bold" fill="#3ddc97">ALLOW</text>
  </g>
    <g transform="translate(700 440)">
    <rect x="0" y="0" width="92" height="46" rx="10" fill="#f5c4511f" stroke="#f5c45166" stroke-width="1.5"/>
    <text x="46" y="30" text-anchor="middle" font-family="DejaVu Sans Mono, monospace" font-size="22" font-weight="bold" fill="#f5c451">WARN</text>
  </g>
    <g transform="translate(862 440)">
    <rect x="0" y="0" width="92" height="46" rx="10" fill="#ff6b6b1f" stroke="#ff6b6b66" stroke-width="1.5"/>
    <text x="46" y="30" text-anchor="middle" font-family="DejaVu Sans Mono, monospace" font-size="22" font-weight="bold" fill="#ff6b6b">DENY</text>
  </g>
  </g>

  <!-- proof row -->
  <text x="800" y="565" text-anchor="middle" font-family="DejaVu Sans Mono, monospace" font-size="22" fill="#48D8FF">live on npm · hosted API · merged into Aeon</text>

  <!-- contract -->
  <g transform="translate(800 640)">
    <rect x="-440" y="0" width="880" height="64" rx="12" fill="#0E121B" stroke="#222838"/>
    <text x="-414" y="29" font-family="DejaVu Sans Mono, monospace" font-size="13" fill="#4A4A5A">OFFICIAL CONTRACT · BASE</text>
    <text x="-414" y="51" font-family="DejaVu Sans Mono, monospace" font-size="19" fill="#EAF2FF">0xd7e608d398b88fe3084b495e9b86de2db343cba3</text>
  </g>

  <text x="800" y="788" text-anchor="middle" font-family="DejaVu Sans Mono, monospace" font-size="18" fill="#4A4A5A">usephylax.com · verify before you ape · open source (MIT)</text>
</svg>