<svg xmlns="http://www.w3.org/2000/svg" viewBox="0 0 1200 630" fill="none">
  <defs>
    <linearGradient id="bg" x1="0" y1="0" x2="1200" y2="630" gradientUnits="userSpaceOnUse">
      <stop offset="0" stop-color="#0A0D14"/>
      <stop offset="1" stop-color="#06080C"/>
    </linearGradient>
    <linearGradient id="edge" x1="600" y1="150" x2="600" y2="470" gradientUnits="userSpaceOnUse">
      <stop offset="0" stop-color="#d6ff33"/>
      <stop offset="1" stop-color="#b4e81f"/>
    </linearGradient>
    <radialGradient id="core" cx="220" cy="300" r="150" gradientUnits="userSpaceOnUse">
      <stop offset="0" stop-color="#11203A"/>
      <stop offset="1" stop-color="#0E0E14"/>
    </radialGradient>
  </defs>

  <rect width="1200" height="630" fill="url(#bg)"/>

  <!-- subtle grid -->
  <g stroke="#141A26" stroke-width="1" opacity="0.5">
    <line x1="0" y1="157" x2="1200" y2="157"/>
    <line x1="0" y1="315" x2="1200" y2="315"/>
    <line x1="0" y1="472" x2="1200" y2="472"/>
  </g>

  <!-- Logo mark -->
  <g transform="translate(120 175) scale(2.55)">
    <path d="M32 3 L55 11 V29 C55 44 45.5 54 32 60 C18.5 54 9 44 9 29 V11 Z"
          fill="url(#core)" stroke="url(#edge)" stroke-width="2.5" stroke-linejoin="round"/>
    <circle cx="32" cy="30" r="9.5" fill="none" stroke="#b4e81f" stroke-width="2"/>
    <circle cx="32" cy="30" r="5.5" fill="none" stroke="#d6ff33" stroke-width="1.4"/>
    <circle cx="32" cy="30" r="2" fill="#d6ff33"/>
    <line x1="32" y1="17" x2="32" y2="22.5" stroke="#d6ff33" stroke-width="1.6" stroke-linecap="round"/>
    <line x1="32" y1="37.5" x2="32" y2="43" stroke="#d6ff33" stroke-width="1.6" stroke-linecap="round"/>
    <line x1="19" y1="30" x2="24.5" y2="30" stroke="#d6ff33" stroke-width="1.6" stroke-linecap="round"/>
    <line x1="39.5" y1="30" x2="45" y2="30" stroke="#d6ff33" stroke-width="1.6" stroke-linecap="round"/>
    <path d="M27 47.5 L30.5 51 L38 43.5" fill="none" stroke="#d6ff33" stroke-width="2.2" stroke-linecap="round" stroke-linejoin="round"/>
  </g>

  <!-- Wordmark + tagline -->
  <text x="430" y="270" font-family="'IBM Plex Mono', monospace" font-size="92" font-weight="600" fill="#E8E8EC">phylax</text>
  <text x="432" y="332" font-family="Inter, sans-serif" font-size="30" font-weight="500" fill="#8888A0">Pre-install risk verdicts for agent skills</text>

  <!-- Verdict chips -->
  <g font-family="'IBM Plex Mono', monospace" font-size="24" font-weight="700">
    <rect x="432" y="372" width="118" height="44" rx="6" fill="#10B98115" stroke="#10B98140"/>
    <text x="491" y="401" text-anchor="middle" fill="#34D399">ALLOW</text>
    <rect x="566" y="372" width="106" height="44" rx="6" fill="#EAB30815" stroke="#EAB30840"/>
    <text x="619" y="401" text-anchor="middle" fill="#FACC15">WARN</text>
    <rect x="688" y="372" width="104" height="44" rx="6" fill="#EF444415" stroke="#EF444440"/>
    <text x="740" y="401" text-anchor="middle" fill="#F87171">DENY</text>
  </g>

  <!-- footer line -->
  <text x="432" y="468" font-family="'IBM Plex Mono', monospace" font-size="20" fill="#4A4A5A">SKILL.md · contracts · x402 · Base 8453</text>
</svg>
